<svg width="128" height="128" viewBox="0 0 128 128" fill="none" xmlns="http://www.w3.org/2000/svg">
<circle cx="64" cy="64" r="62" fill="#09070D"/>
<path fill-rule="evenodd" clip-rule="evenodd" d="M28.2092 28.591C28.0842 28.916 28.0386 34.0943 28.1074 40.0989L28.2325 51.0159H37.1836C42.1062 51.0159 46.1342 51.1773 46.1342 51.3749C46.1333 52.1835 43.2379 58.0369 41.0321 61.6888C38.4037 66.0404 34.7913 70.8636 30.7131 75.4667L28 78.529V89.7645V101H39.3917H50.7834V91.9331C50.7834 86.9463 50.9094 82.8662 51.0638 82.8662C51.2177 82.8662 53.0488 83.6692 55.1323 84.6503C62.0612 87.9135 68.9591 92.5971 75.0329 98.1646L78.1268 101H89.5632H101V89.6083V78.2166H91.9331C86.9463 78.2166 82.8662 78.0906 82.8662 77.9362C82.8662 77.7823 83.6692 75.9512 84.6503 73.8677C87.9274 66.909 92.9393 59.5146 98.166 53.9271L101 50.8974V39.4489V28H89.6083H78.2166V37.0669C78.2166 43.1733 78.0547 46.1338 77.7209 46.1338C76.7691 46.1338 70.513 43.0208 66.6798 40.6397C62.044 37.7606 58.2071 34.8783 53.7532 30.9312L50.4459 28H39.441C30.9702 28 28.3836 28.1362 28.2092 28.591ZM50.7834 64.7325V78.2166H64.5H78.2166V64.7325V51.2484H64.5H50.7834V64.7325Z" fill="white"/>
</svg>
