<svg width="89" height="22" viewBox="0 0 89 22" fill="none" xmlns="http://www.w3.org/2000/svg">
<path fill-rule="evenodd" clip-rule="evenodd" d="M0.0622857 0.175924C0.0250525 0.272675 0.0114887 1.81419 0.0319739 3.60166L0.0692068 6.85148H2.73381C4.1992 6.85148 5.39827 6.89951 5.39827 6.95833C5.398 7.19904 4.53609 8.94153 3.87946 10.0286C3.09701 11.324 2.02167 12.7598 0.807645 14.1301L0 15.0417V18.3863V21.731H3.39114H6.78227V19.0319C6.78227 17.5474 6.81978 16.3328 6.86573 16.3328C6.91155 16.3328 7.45662 16.5719 8.07685 16.8639C10.1395 17.8353 12.1929 19.2295 14.001 20.8869L14.922 21.731H18.3264H21.7309V18.3398V14.9487H19.0319C17.5474 14.9487 16.3328 14.9112 16.3328 14.8652C16.3328 14.8194 16.5719 14.2743 16.8639 13.6541C17.8394 11.5826 19.3314 9.3814 20.8873 7.71809L21.7309 6.81618V3.40816V0H18.3398H14.9487V2.69907C14.9487 4.51685 14.9005 5.39813 14.8011 5.39813C14.5178 5.39813 12.6554 4.47145 11.5144 3.76264C10.1344 2.90558 8.99218 2.04755 7.66632 0.87256L6.68178 0H3.40581C0.884187 0 0.114191 0.0405552 0.0622857 0.175924ZM44.0549 2.58847C43.8861 2.62114 43.5841 2.84274 43.3837 3.08109C42.9282 3.62229 42.9905 4.33747 43.5341 4.80988C44.1515 5.34637 45.706 5.21155 46.1911 4.57969C46.4019 4.30508 46.4172 3.53287 46.2191 3.16275C45.945 2.65076 45.0121 2.40328 44.0549 2.58847ZM50.6594 3.30504C50.6594 3.89745 50.7224 4.17013 50.891 4.30854C51.1306 4.50509 52.182 6.06418 52.182 6.22294C52.182 6.27236 51.092 6.30931 49.7597 6.3053L47.3375 6.29782V7.43974V8.58165H48.9984H50.6594L50.6602 12.561C50.6609 16.6798 50.7193 17.2184 51.2491 17.9981C51.8423 18.8708 52.3795 19.0262 54.9848 19.0781L57.3033 19.1245V17.9362V16.7481H55.5946C53.1867 16.7481 53.369 17.098 53.3157 12.3738L53.2729 8.58165H55.2881H57.3033V7.43974V6.29782L55.2963 6.32578L53.2893 6.3536V4.42259V2.49145H51.9743H50.6594V3.30504ZM27.5443 10.9347V19.1011H28.9285H30.3126V15.9776V12.8541L33.5307 12.8979C36.4726 12.9379 36.7899 12.9659 37.2284 13.2234C38.1274 13.7517 38.2628 14.1803 38.3406 16.7481L38.4098 19.0319L39.7939 19.0711L41.1781 19.1102L41.1367 16.8564C41.11 15.398 41.0225 14.3442 40.8889 13.8703C40.6457 13.0072 39.9116 12.1275 39.2284 11.8805C38.7542 11.709 38.5933 11.4883 38.9427 11.4883C39.3947 11.4883 40.3112 10.6201 40.6693 9.85243C40.9884 9.16797 41.0362 8.88685 41.0379 7.68196C41.0415 4.97722 40.0615 3.58242 37.7177 2.95638C37.2049 2.81949 35.7974 2.77118 32.285 2.76994L27.5443 2.76827V10.9347ZM30.3442 7.77442L30.3818 10.4502L33.4961 10.449C36.3545 10.4477 36.649 10.425 37.0803 10.1722C37.9253 9.67678 38.128 9.25877 38.175 7.91422C38.2256 6.47652 37.9896 5.914 37.1513 5.47426C36.6609 5.21709 36.3157 5.18622 33.4585 5.14456L30.3065 5.09861L30.3442 7.77442ZM62.757 6.29589C60.4206 6.80414 59.0058 8.17914 58.4686 10.4635C58.158 11.7845 58.2626 14.5473 58.6664 15.6784C59.2498 17.3133 60.4396 18.4381 62.1598 18.9809C63.1958 19.3079 65.5368 19.3785 66.6299 19.1158C68.4928 18.668 69.83 17.5217 70.3128 15.9588C70.4657 15.4633 70.591 15.0022 70.591 14.9341C70.591 14.866 69.935 14.8103 69.1333 14.8103C67.8646 14.8103 67.6663 14.8417 67.604 15.0525C67.3975 15.7506 67.0108 16.2849 66.5086 16.5658C65.3881 17.1925 63.4713 17.1111 62.3825 16.3905C61.7699 15.9851 61.2324 14.9624 61.0914 13.934L61.0028 13.2877H65.8661H70.7294L70.7266 12.6302C70.7118 9.07468 69.2071 6.90158 66.3389 6.29381C65.1919 6.05075 63.88 6.05159 62.757 6.29589ZM77.7193 6.36136C76.8112 6.66074 75.9635 7.28277 75.558 7.94771L75.298 8.37403L75.2972 7.33593L75.2964 6.29782L73.9818 6.2826L72.6672 6.26723V12.6842V19.1011H73.9748H75.2825L75.3243 14.7757L75.3663 10.4502L75.7456 9.80481C76.2643 8.92242 76.8964 8.55895 78.0563 8.47604C79.8284 8.34925 80.4368 8.96159 80.5327 10.9693L80.5907 12.1804H81.9774H83.3642L83.2867 10.6925C83.2439 9.87222 83.1074 8.91675 82.9827 8.56324C82.6843 7.71795 81.9493 6.87805 81.1834 6.50724C80.2841 6.07193 78.7887 6.00895 77.7193 6.36136ZM43.4619 12.6871V19.1011H44.7782H46.0945L46.0585 12.7008L46.0225 6.30073L44.7422 6.28703L43.4619 6.27332V12.6871ZM83.7876 6.40163C83.6626 6.60538 83.9015 6.78227 84.3021 6.78227H84.7092V7.88958C84.7092 8.76795 84.751 8.99689 84.9113 8.99689C85.0686 8.99689 85.1221 8.74595 85.1535 7.85968L85.1936 6.72234L85.5967 6.71777C85.8183 6.71514 86.0244 6.64012 86.0544 6.55084C86.1163 6.36758 83.8982 6.22156 83.7876 6.40163ZM86.2814 6.43707C86.2421 6.53977 86.2303 7.14132 86.2554 7.77401C86.2936 8.73792 86.3402 8.93184 86.5432 8.97073C86.7527 9.01087 86.7863 8.89889 86.7922 8.14191L86.7988 7.26672L87.1552 8.13762C87.3511 8.61667 87.5724 8.98831 87.647 8.96339C87.7215 8.93862 87.9186 8.59632 88.0849 8.20267C88.5143 7.18713 88.5848 7.17883 88.5848 8.14329C88.5848 8.80976 88.6303 8.99689 88.7924 8.99689C88.9623 8.99689 89 8.75854 89 7.68196C89 6.44343 88.9832 6.36703 88.7128 6.36703C88.494 6.36703 88.3405 6.56441 88.0672 7.19751C87.8703 7.65428 87.6725 8.02772 87.6278 8.0273C87.5832 8.02689 87.3889 7.6432 87.1959 7.17467C86.8531 6.34156 86.4445 6.01214 86.2814 6.43707ZM6.78227 10.9347V14.9487H10.8655H14.9487V10.9347V6.92068H10.8655H6.78227V10.9347ZM63.2174 8.62691C62.1961 8.94457 61.1788 10.1525 61.1788 11.0476V11.3499H64.5008H67.8227V10.964C67.8227 10.3819 67.2588 9.38431 66.7317 9.03412C65.8467 8.446 64.3548 8.27313 63.2174 8.62691Z" fill="white"/>
</svg>
